# xmcd
#
# Track frame offsets:
# 150
# 35857
# 61372
# 97282
# 129464
# 162531
#
# Disc length: 2544 seconds
#
#
# Revision: 0
# Processed by: cddbd v1.5.1PL2 Copyright (c) Steve Scherf et al.
# Submitted via: FreeRIP 2.942 
#
DISCID=5909ee06
DTITLE=Ohio Players - Skin Tight
DYEAR=1974
DGENRE=Funk
TTITLE0=Skin Tight
TTITLE1=Streakin' Cheek To Cheek
TTITLE2=It's Your Night - Words Of Love
TTITLE3=Jive Turkey
TTITLE4=Heaven Must Be Like This
TTITLE5=Is Anybody Gonna Be Saved?
EXTD=LP Rip\nPhongram Records - 1974
EXTT0=
EXTT1=
EXTT2=
EXTT3=
EXTT4=
EXTT5=
PLAYORDER=
